<svg width="18" height="19" viewBox="0 0 18 19" fill="none" xmlns="http://www.w3.org/2000/svg">
<path d="M7.46933 17.062L0.216639 2.87851C0.0508481 2.55404 -0.0221042 2.19007 0.00581822 1.82677C0.0337406 1.46346 0.16146 1.11492 0.374882 0.819591C0.588311 0.524261 0.879152 0.293608 1.21534 0.15307C1.55153 0.012532 1.91999 -0.0324292 2.28011 0.0231479L15.7212 2.09759C16.0306 2.14536 16.3243 2.26589 16.5781 2.44929C16.8319 2.63269 17.0385 2.8737 17.181 3.15252C17.3235 3.43134 17.3978 3.73999 17.3977 4.05312C17.3977 4.36623 17.3233 4.67487 17.1807 4.95365L10.989 17.0627C10.8227 17.3862 10.5704 17.6577 10.2599 17.8472C9.94941 18.0367 9.59271 18.1369 9.22895 18.1368C8.86518 18.1368 8.50848 18.0364 8.19803 17.8468C7.88759 17.6572 7.63547 17.3856 7.46933 17.062Z" fill="#586E84"/>
</svg>
